<svg width="129" height="111" viewBox="0 0 129 111" fill="none" xmlns="http://www.w3.org/2000/svg">
<path d="M7.2625 26H12.2325V5.7875H18.5325V1.5H0.9625V5.7875H7.2625V26ZM31.7849 7.45C29.7024 7.45 27.8999 8.36 26.6224 9.9V0.449999H21.8099V26H26.6224V16.13C26.6224 13.4 28.5124 11.7025 30.7349 11.7025C32.5899 11.7025 34.1649 13.2775 34.1649 15.29V26H38.9774V14.7825C38.9774 10.39 36.0374 7.45 31.7849 7.45ZM46.9498 18.37H61.2298C61.3523 17.88 61.4398 17.18 61.4398 16.62C61.4398 11.5625 57.4848 7.45 51.9373 7.45C46.3198 7.45 42.0848 11.6325 42.0848 16.935C42.0848 22.2375 46.1973 26.42 52.3923 26.42C56.1548 26.42 58.7798 24.81 60.7573 22.57L58.3423 20.155C56.6448 21.7475 54.8598 22.5875 52.3748 22.5875C49.4698 22.5875 47.3698 20.89 46.9498 18.37ZM51.9023 11.2825C54.2473 11.2825 55.9623 12.7875 56.4873 14.94H47.0723C47.7198 12.735 49.6273 11.2825 51.9023 11.2825ZM17.0275 64.185L24.0975 51.62V68H28.7875V43.5H23.7125L15.7325 57.885L7.7525 43.5H2.6775V68H7.3675V51.62L14.4375 64.185H17.0275ZM32.617 58.935C32.617 64.2375 36.922 68.42 42.6795 68.42C48.4545 68.42 52.742 64.2375 52.742 58.935C52.742 53.6325 48.4545 49.45 42.6795 49.45C36.922 49.45 32.617 53.6325 32.617 58.935ZM37.447 58.935C37.447 55.995 39.722 53.7025 42.6795 53.7025C45.6545 53.7025 47.9295 55.995 47.9295 58.935C47.9295 61.8925 45.6545 64.1675 42.6795 64.1675C39.722 64.1675 37.447 61.8925 37.447 58.935ZM66.9829 49.87L62.9229 62.2075L58.8629 49.87H53.8579L60.3329 68H65.5129L71.9879 49.87H66.9829ZM74.7392 68H79.5517V49.87H74.7392V68ZM74.3017 45.04C74.3017 46.615 75.5442 47.8225 77.1542 47.8225C78.7642 47.8225 80.0067 46.615 80.0067 45.04C80.0067 43.465 78.7642 42.2575 77.1542 42.2575C75.5442 42.2575 74.3017 43.465 74.3017 45.04ZM87.9996 60.37H102.28C102.402 59.88 102.49 59.18 102.49 58.62C102.49 53.5625 98.5346 49.45 92.9871 49.45C87.3696 49.45 83.1346 53.6325 83.1346 58.935C83.1346 64.2375 87.2471 68.42 93.4421 68.42C97.2046 68.42 99.8296 66.81 101.807 64.57L99.3921 62.155C97.6946 63.7475 95.9096 64.5875 93.4246 64.5875C90.5196 64.5875 88.4196 62.89 87.9996 60.37ZM92.9521 53.2825C95.2971 53.2825 97.0121 54.7875 97.5371 56.94H88.1221C88.7696 54.735 90.6771 53.2825 92.9521 53.2825ZM7.2625 110H12.2325V89.7875H18.5325V85.5H0.9625V89.7875H7.2625V110ZM28.8066 95.7025C29.4191 95.7025 30.1191 95.8425 30.7316 96.0525L31.0641 91.835C30.6441 91.6075 30.0316 91.45 29.4191 91.45C27.3366 91.45 25.7266 92.5525 24.5716 94.0925V91.87H19.7591V110H24.5716V100.392C24.5716 97.575 26.4966 95.7025 28.8066 95.7025ZM32.4461 100.935C32.4461 106.237 36.1386 110.42 41.1961 110.42C43.7336 110.42 45.7811 109.44 47.2336 107.83V110H51.9936V91.87H47.2336V94.04C45.7811 92.43 43.7336 91.45 41.1961 91.45C36.1386 91.45 32.4461 95.6325 32.4461 100.935ZM37.2761 100.935C37.2761 97.995 39.4461 95.7025 42.2286 95.7025C45.0286 95.7025 47.2336 97.995 47.2336 100.935C47.2336 103.892 45.0286 106.167 42.2286 106.167C39.4461 106.167 37.2761 103.892 37.2761 100.935ZM70.8315 103.385C69.519 105.1 67.699 106.167 65.5115 106.167C62.379 106.167 60.279 103.892 60.279 100.935C60.279 97.995 62.379 95.7025 64.9865 95.7025C66.8065 95.7025 68.0665 96.5775 68.644 97.96H73.8765C72.7915 93.97 69.624 91.45 64.9865 91.45C59.579 91.45 55.449 95.6325 55.449 100.935C55.449 106.237 59.579 110.42 65.3365 110.42C68.8365 110.42 71.5665 108.722 73.3865 105.362L70.8315 103.385ZM87.5194 91.87C87.5194 96.7175 85.6819 97.9425 83.5469 97.9425H82.1644V84.45H77.3519V110H82.1644V102.072H84.0194L88.3944 110H93.7319L88.6744 101.04C91.0719 99.57 92.3319 96.5425 92.3319 91.87H87.5194ZM99.4498 102.37H113.73C113.852 101.88 113.94 101.18 113.94 100.62C113.94 95.5625 109.985 91.45 104.437 91.45C98.8198 91.45 94.5848 95.6325 94.5848 100.935C94.5848 106.237 98.6973 110.42 104.892 110.42C108.655 110.42 111.28 108.81 113.257 106.57L110.842 104.155C109.145 105.747 107.36 106.587 104.875 106.587C101.97 106.587 99.8698 104.89 99.4498 102.37ZM104.402 95.2825C106.747 95.2825 108.462 96.7875 108.987 98.94H99.5723C100.22 96.735 102.127 95.2825 104.402 95.2825ZM126.458 95.7025C127.071 95.7025 127.771 95.8425 128.383 96.0525L128.716 91.835C128.296 91.6075 127.683 91.45 127.071 91.45C124.988 91.45 123.378 92.5525 122.223 94.0925V91.87H117.411V110H122.223V100.392C122.223 97.575 124.148 95.7025 126.458 95.7025Z" fill="black"/>
</svg>
